G04 EAGLE Gerber RS-274X export*
G75*
%MOMM*%
%FSLAX34Y34*%
%LPD*%
%IN*%
%IPPOS*%
%AMOC8*
5,1,8,0,0,1.08239X$1,22.5*%
G01*
%ADD10C,0.254000*%


D10*
X-336550Y73000D02*
X730050Y73000D01*
X730050Y815850D01*
X-336550Y815850D01*
X-336550Y73000D01*
X-37750Y693077D02*
X-37750Y694223D01*
X-37825Y695366D01*
X-37975Y696502D01*
X-38198Y697626D01*
X-38495Y698733D01*
X-38863Y699818D01*
X-39301Y700876D01*
X-39808Y701904D01*
X-40381Y702896D01*
X-41018Y703849D01*
X-41715Y704758D01*
X-42471Y705619D01*
X-43281Y706429D01*
X-44142Y707185D01*
X-45051Y707882D01*
X-46004Y708519D01*
X-46996Y709092D01*
X-48024Y709599D01*
X-49082Y710037D01*
X-50167Y710405D01*
X-51274Y710702D01*
X-52398Y710926D01*
X-53534Y711075D01*
X-54677Y711150D01*
X-55823Y711150D01*
X-56966Y711075D01*
X-58102Y710926D01*
X-59226Y710702D01*
X-60333Y710405D01*
X-61418Y710037D01*
X-62476Y709599D01*
X-63504Y709092D01*
X-64496Y708519D01*
X-65449Y707882D01*
X-66358Y707185D01*
X-67219Y706429D01*
X-68029Y705619D01*
X-68785Y704758D01*
X-69482Y703849D01*
X-70119Y702896D01*
X-70692Y701904D01*
X-71199Y700876D01*
X-71637Y699818D01*
X-72005Y698733D01*
X-72302Y697626D01*
X-72526Y696502D01*
X-72675Y695366D01*
X-72750Y694223D01*
X-72750Y693077D01*
X-72675Y691934D01*
X-72526Y690798D01*
X-72302Y689674D01*
X-72005Y688567D01*
X-71637Y687482D01*
X-71199Y686424D01*
X-70692Y685396D01*
X-70119Y684404D01*
X-69482Y683451D01*
X-68785Y682542D01*
X-68029Y681681D01*
X-67219Y680871D01*
X-66358Y680115D01*
X-65449Y679418D01*
X-64496Y678781D01*
X-63504Y678208D01*
X-62476Y677701D01*
X-61418Y677263D01*
X-60333Y676895D01*
X-59226Y676598D01*
X-58102Y676375D01*
X-56966Y676225D01*
X-55823Y676150D01*
X-54677Y676150D01*
X-53534Y676225D01*
X-52398Y676375D01*
X-51274Y676598D01*
X-50167Y676895D01*
X-49082Y677263D01*
X-48024Y677701D01*
X-46996Y678208D01*
X-46004Y678781D01*
X-45051Y679418D01*
X-44142Y680115D01*
X-43281Y680871D01*
X-42471Y681681D01*
X-41715Y682542D01*
X-41018Y683451D01*
X-40381Y684404D01*
X-39808Y685396D01*
X-39301Y686424D01*
X-38863Y687482D01*
X-38495Y688567D01*
X-38198Y689674D01*
X-37975Y690798D01*
X-37825Y691934D01*
X-37750Y693077D01*
X442250Y693077D02*
X442250Y694223D01*
X442175Y695366D01*
X442026Y696502D01*
X441802Y697626D01*
X441505Y698733D01*
X441137Y699818D01*
X440699Y700876D01*
X440192Y701904D01*
X439619Y702896D01*
X438982Y703849D01*
X438285Y704758D01*
X437529Y705619D01*
X436719Y706429D01*
X435858Y707185D01*
X434949Y707882D01*
X433996Y708519D01*
X433004Y709092D01*
X431976Y709599D01*
X430918Y710037D01*
X429833Y710405D01*
X428726Y710702D01*
X427602Y710926D01*
X426466Y711075D01*
X425323Y711150D01*
X424177Y711150D01*
X423034Y711075D01*
X421898Y710926D01*
X420774Y710702D01*
X419667Y710405D01*
X418582Y710037D01*
X417524Y709599D01*
X416496Y709092D01*
X415504Y708519D01*
X414551Y707882D01*
X413642Y707185D01*
X412781Y706429D01*
X411971Y705619D01*
X411215Y704758D01*
X410518Y703849D01*
X409881Y702896D01*
X409308Y701904D01*
X408801Y700876D01*
X408363Y699818D01*
X407995Y698733D01*
X407698Y697626D01*
X407475Y696502D01*
X407325Y695366D01*
X407250Y694223D01*
X407250Y693077D01*
X407325Y691934D01*
X407475Y690798D01*
X407698Y689674D01*
X407995Y688567D01*
X408363Y687482D01*
X408801Y686424D01*
X409308Y685396D01*
X409881Y684404D01*
X410518Y683451D01*
X411215Y682542D01*
X411971Y681681D01*
X412781Y680871D01*
X413642Y680115D01*
X414551Y679418D01*
X415504Y678781D01*
X416496Y678208D01*
X417524Y677701D01*
X418582Y677263D01*
X419667Y676895D01*
X420774Y676598D01*
X421898Y676375D01*
X423034Y676225D01*
X424177Y676150D01*
X425323Y676150D01*
X426466Y676225D01*
X427602Y676375D01*
X428726Y676598D01*
X429833Y676895D01*
X430918Y677263D01*
X431976Y677701D01*
X433004Y678208D01*
X433996Y678781D01*
X434949Y679418D01*
X435858Y680115D01*
X436719Y680871D01*
X437529Y681681D01*
X438285Y682542D01*
X438982Y683451D01*
X439619Y684404D01*
X440192Y685396D01*
X440699Y686424D01*
X441137Y687482D01*
X441505Y688567D01*
X441802Y689674D01*
X442026Y690798D01*
X442175Y691934D01*
X442250Y693077D01*
X442250Y213077D02*
X442250Y214223D01*
X442175Y215366D01*
X442026Y216502D01*
X441802Y217626D01*
X441505Y218733D01*
X441137Y219818D01*
X440699Y220876D01*
X440192Y221904D01*
X439619Y222896D01*
X438982Y223849D01*
X438285Y224758D01*
X437529Y225619D01*
X436719Y226429D01*
X435858Y227185D01*
X434949Y227882D01*
X433996Y228519D01*
X433004Y229092D01*
X431976Y229599D01*
X430918Y230037D01*
X429833Y230405D01*
X428726Y230702D01*
X427602Y230926D01*
X426466Y231075D01*
X425323Y231150D01*
X424177Y231150D01*
X423034Y231075D01*
X421898Y230926D01*
X420774Y230702D01*
X419667Y230405D01*
X418582Y230037D01*
X417524Y229599D01*
X416496Y229092D01*
X415504Y228519D01*
X414551Y227882D01*
X413642Y227185D01*
X412781Y226429D01*
X411971Y225619D01*
X411215Y224758D01*
X410518Y223849D01*
X409881Y222896D01*
X409308Y221904D01*
X408801Y220876D01*
X408363Y219818D01*
X407995Y218733D01*
X407698Y217626D01*
X407475Y216502D01*
X407325Y215366D01*
X407250Y214223D01*
X407250Y213077D01*
X407325Y211934D01*
X407475Y210798D01*
X407698Y209674D01*
X407995Y208567D01*
X408363Y207482D01*
X408801Y206424D01*
X409308Y205396D01*
X409881Y204404D01*
X410518Y203451D01*
X411215Y202542D01*
X411971Y201681D01*
X412781Y200871D01*
X413642Y200115D01*
X414551Y199418D01*
X415504Y198781D01*
X416496Y198208D01*
X417524Y197701D01*
X418582Y197263D01*
X419667Y196895D01*
X420774Y196598D01*
X421898Y196375D01*
X423034Y196225D01*
X424177Y196150D01*
X425323Y196150D01*
X426466Y196225D01*
X427602Y196375D01*
X428726Y196598D01*
X429833Y196895D01*
X430918Y197263D01*
X431976Y197701D01*
X433004Y198208D01*
X433996Y198781D01*
X434949Y199418D01*
X435858Y200115D01*
X436719Y200871D01*
X437529Y201681D01*
X438285Y202542D01*
X438982Y203451D01*
X439619Y204404D01*
X440192Y205396D01*
X440699Y206424D01*
X441137Y207482D01*
X441505Y208567D01*
X441802Y209674D01*
X442026Y210798D01*
X442175Y211934D01*
X442250Y213077D01*
X45800Y644806D02*
X45863Y645364D01*
X45988Y645911D01*
X46173Y646441D01*
X46417Y646947D01*
X46716Y647423D01*
X47066Y647862D01*
X47463Y648259D01*
X47902Y648609D01*
X48378Y648908D01*
X48884Y649152D01*
X49414Y649337D01*
X49961Y649462D01*
X50519Y649525D01*
X51081Y649525D01*
X51639Y649462D01*
X52186Y649337D01*
X52716Y649152D01*
X53222Y648908D01*
X53698Y648609D01*
X54137Y648259D01*
X54534Y647862D01*
X54884Y647423D01*
X55183Y646947D01*
X55427Y646441D01*
X55612Y645911D01*
X55737Y645364D01*
X55800Y644806D01*
X55800Y644244D01*
X55737Y643686D01*
X55612Y643139D01*
X55427Y642609D01*
X55183Y642103D01*
X54884Y641627D01*
X54534Y641188D01*
X54137Y640791D01*
X53698Y640441D01*
X53222Y640142D01*
X52716Y639898D01*
X52186Y639713D01*
X51639Y639588D01*
X51081Y639525D01*
X50519Y639525D01*
X49961Y639588D01*
X49414Y639713D01*
X48884Y639898D01*
X48378Y640142D01*
X47902Y640441D01*
X47463Y640791D01*
X47066Y641188D01*
X46716Y641627D01*
X46417Y642103D01*
X46173Y642609D01*
X45988Y643139D01*
X45863Y643686D01*
X45800Y644244D01*
X45800Y644806D01*
X7700Y644806D02*
X7763Y645364D01*
X7888Y645911D01*
X8073Y646441D01*
X8317Y646947D01*
X8616Y647423D01*
X8966Y647862D01*
X9363Y648259D01*
X9802Y648609D01*
X10278Y648908D01*
X10784Y649152D01*
X11314Y649337D01*
X11861Y649462D01*
X12419Y649525D01*
X12981Y649525D01*
X13539Y649462D01*
X14086Y649337D01*
X14616Y649152D01*
X15122Y648908D01*
X15598Y648609D01*
X16037Y648259D01*
X16434Y647862D01*
X16784Y647423D01*
X17083Y646947D01*
X17327Y646441D01*
X17512Y645911D01*
X17637Y645364D01*
X17700Y644806D01*
X17700Y644244D01*
X17637Y643686D01*
X17512Y643139D01*
X17327Y642609D01*
X17083Y642103D01*
X16784Y641627D01*
X16434Y641188D01*
X16037Y640791D01*
X15598Y640441D01*
X15122Y640142D01*
X14616Y639898D01*
X14086Y639713D01*
X13539Y639588D01*
X12981Y639525D01*
X12419Y639525D01*
X11861Y639588D01*
X11314Y639713D01*
X10784Y639898D01*
X10278Y640142D01*
X9802Y640441D01*
X9363Y640791D01*
X8966Y641188D01*
X8616Y641627D01*
X8317Y642103D01*
X8073Y642609D01*
X7888Y643139D01*
X7763Y643686D01*
X7700Y644244D01*
X7700Y644806D01*
X664210Y670020D02*
X664139Y668941D01*
X663998Y667869D01*
X663787Y666809D01*
X663508Y665765D01*
X663160Y664741D01*
X662746Y663743D01*
X662268Y662773D01*
X661728Y661837D01*
X661127Y660938D01*
X660469Y660081D01*
X659757Y659268D01*
X658992Y658504D01*
X658179Y657791D01*
X657322Y657133D01*
X656423Y656532D01*
X655487Y655992D01*
X654517Y655514D01*
X653519Y655100D01*
X652495Y654752D01*
X651451Y654473D01*
X650391Y654262D01*
X649319Y654121D01*
X648240Y654050D01*
X647160Y654050D01*
X646081Y654121D01*
X645009Y654262D01*
X643949Y654473D01*
X642905Y654752D01*
X641881Y655100D01*
X640883Y655514D01*
X639913Y655992D01*
X638977Y656532D01*
X638078Y657133D01*
X637221Y657791D01*
X636408Y658504D01*
X635644Y659268D01*
X634931Y660081D01*
X634273Y660938D01*
X633672Y661837D01*
X633132Y662773D01*
X632654Y663743D01*
X632240Y664741D01*
X631892Y665765D01*
X631613Y666809D01*
X631402Y667869D01*
X631261Y668941D01*
X631190Y670020D01*
X631190Y671100D01*
X631261Y672179D01*
X631402Y673251D01*
X631613Y674311D01*
X631892Y675355D01*
X632240Y676379D01*
X632654Y677377D01*
X633132Y678347D01*
X633672Y679283D01*
X634273Y680182D01*
X634931Y681039D01*
X635644Y681852D01*
X636408Y682617D01*
X637221Y683329D01*
X638078Y683987D01*
X638977Y684588D01*
X639913Y685128D01*
X640883Y685606D01*
X641881Y686020D01*
X642905Y686368D01*
X643949Y686647D01*
X645009Y686858D01*
X646081Y686999D01*
X647160Y687070D01*
X648240Y687070D01*
X649319Y686999D01*
X650391Y686858D01*
X651451Y686647D01*
X652495Y686368D01*
X653519Y686020D01*
X654517Y685606D01*
X655487Y685128D01*
X656423Y684588D01*
X657322Y683987D01*
X658179Y683329D01*
X658992Y682617D01*
X659757Y681852D01*
X660469Y681039D01*
X661127Y680182D01*
X661728Y679283D01*
X662268Y678347D01*
X662746Y677377D01*
X663160Y676379D01*
X663508Y675355D01*
X663787Y674311D01*
X663998Y673251D01*
X664139Y672179D01*
X664210Y671100D01*
X664210Y670020D01*
X524510Y670020D02*
X524439Y668941D01*
X524298Y667869D01*
X524087Y666809D01*
X523808Y665765D01*
X523460Y664741D01*
X523046Y663743D01*
X522568Y662773D01*
X522028Y661837D01*
X521427Y660938D01*
X520769Y660081D01*
X520057Y659268D01*
X519292Y658504D01*
X518479Y657791D01*
X517622Y657133D01*
X516723Y656532D01*
X515787Y655992D01*
X514817Y655514D01*
X513819Y655100D01*
X512795Y654752D01*
X511751Y654473D01*
X510691Y654262D01*
X509619Y654121D01*
X508540Y654050D01*
X507460Y654050D01*
X506381Y654121D01*
X505309Y654262D01*
X504249Y654473D01*
X503205Y654752D01*
X502181Y655100D01*
X501183Y655514D01*
X500213Y655992D01*
X499277Y656532D01*
X498378Y657133D01*
X497521Y657791D01*
X496708Y658504D01*
X495944Y659268D01*
X495231Y660081D01*
X494573Y660938D01*
X493972Y661837D01*
X493432Y662773D01*
X492954Y663743D01*
X492540Y664741D01*
X492192Y665765D01*
X491913Y666809D01*
X491702Y667869D01*
X491561Y668941D01*
X491490Y670020D01*
X491490Y671100D01*
X491561Y672179D01*
X491702Y673251D01*
X491913Y674311D01*
X492192Y675355D01*
X492540Y676379D01*
X492954Y677377D01*
X493432Y678347D01*
X493972Y679283D01*
X494573Y680182D01*
X495231Y681039D01*
X495944Y681852D01*
X496708Y682617D01*
X497521Y683329D01*
X498378Y683987D01*
X499277Y684588D01*
X500213Y685128D01*
X501183Y685606D01*
X502181Y686020D01*
X503205Y686368D01*
X504249Y686647D01*
X505309Y686858D01*
X506381Y686999D01*
X507460Y687070D01*
X508540Y687070D01*
X509619Y686999D01*
X510691Y686858D01*
X511751Y686647D01*
X512795Y686368D01*
X513819Y686020D01*
X514817Y685606D01*
X515787Y685128D01*
X516723Y684588D01*
X517622Y683987D01*
X518479Y683329D01*
X519292Y682617D01*
X520057Y681852D01*
X520769Y681039D01*
X521427Y680182D01*
X522028Y679283D01*
X522568Y678347D01*
X523046Y677377D01*
X523460Y676379D01*
X523808Y675355D01*
X524087Y674311D01*
X524298Y673251D01*
X524439Y672179D01*
X524510Y671100D01*
X524510Y670020D01*
X631190Y218980D02*
X631261Y220059D01*
X631402Y221131D01*
X631613Y222191D01*
X631892Y223235D01*
X632240Y224259D01*
X632654Y225257D01*
X633132Y226227D01*
X633672Y227163D01*
X634273Y228062D01*
X634931Y228919D01*
X635644Y229732D01*
X636408Y230497D01*
X637221Y231209D01*
X638078Y231867D01*
X638977Y232468D01*
X639913Y233008D01*
X640883Y233486D01*
X641881Y233900D01*
X642905Y234248D01*
X643949Y234527D01*
X645009Y234738D01*
X646081Y234879D01*
X647160Y234950D01*
X648240Y234950D01*
X649319Y234879D01*
X650391Y234738D01*
X651451Y234527D01*
X652495Y234248D01*
X653519Y233900D01*
X654517Y233486D01*
X655487Y233008D01*
X656423Y232468D01*
X657322Y231867D01*
X658179Y231209D01*
X658992Y230497D01*
X659757Y229732D01*
X660469Y228919D01*
X661127Y228062D01*
X661728Y227163D01*
X662268Y226227D01*
X662746Y225257D01*
X663160Y224259D01*
X663508Y223235D01*
X663787Y222191D01*
X663998Y221131D01*
X664139Y220059D01*
X664210Y218980D01*
X664210Y217900D01*
X664139Y216821D01*
X663998Y215749D01*
X663787Y214689D01*
X663508Y213645D01*
X663160Y212621D01*
X662746Y211623D01*
X662268Y210653D01*
X661728Y209717D01*
X661127Y208818D01*
X660469Y207961D01*
X659757Y207148D01*
X658992Y206384D01*
X658179Y205671D01*
X657322Y205013D01*
X656423Y204412D01*
X655487Y203872D01*
X654517Y203394D01*
X653519Y202980D01*
X652495Y202632D01*
X651451Y202353D01*
X650391Y202142D01*
X649319Y202001D01*
X648240Y201930D01*
X647160Y201930D01*
X646081Y202001D01*
X645009Y202142D01*
X643949Y202353D01*
X642905Y202632D01*
X641881Y202980D01*
X640883Y203394D01*
X639913Y203872D01*
X638977Y204412D01*
X638078Y205013D01*
X637221Y205671D01*
X636408Y206384D01*
X635644Y207148D01*
X634931Y207961D01*
X634273Y208818D01*
X633672Y209717D01*
X633132Y210653D01*
X632654Y211623D01*
X632240Y212621D01*
X631892Y213645D01*
X631613Y214689D01*
X631402Y215749D01*
X631261Y216821D01*
X631190Y217900D01*
X631190Y218980D01*
X491490Y218980D02*
X491561Y220059D01*
X491702Y221131D01*
X491913Y222191D01*
X492192Y223235D01*
X492540Y224259D01*
X492954Y225257D01*
X493432Y226227D01*
X493972Y227163D01*
X494573Y228062D01*
X495231Y228919D01*
X495944Y229732D01*
X496708Y230497D01*
X497521Y231209D01*
X498378Y231867D01*
X499277Y232468D01*
X500213Y233008D01*
X501183Y233486D01*
X502181Y233900D01*
X503205Y234248D01*
X504249Y234527D01*
X505309Y234738D01*
X506381Y234879D01*
X507460Y234950D01*
X508540Y234950D01*
X509619Y234879D01*
X510691Y234738D01*
X511751Y234527D01*
X512795Y234248D01*
X513819Y233900D01*
X514817Y233486D01*
X515787Y233008D01*
X516723Y232468D01*
X517622Y231867D01*
X518479Y231209D01*
X519292Y230497D01*
X520057Y229732D01*
X520769Y228919D01*
X521427Y228062D01*
X522028Y227163D01*
X522568Y226227D01*
X523046Y225257D01*
X523460Y224259D01*
X523808Y223235D01*
X524087Y222191D01*
X524298Y221131D01*
X524439Y220059D01*
X524510Y218980D01*
X524510Y217900D01*
X524439Y216821D01*
X524298Y215749D01*
X524087Y214689D01*
X523808Y213645D01*
X523460Y212621D01*
X523046Y211623D01*
X522568Y210653D01*
X522028Y209717D01*
X521427Y208818D01*
X520769Y207961D01*
X520057Y207148D01*
X519292Y206384D01*
X518479Y205671D01*
X517622Y205013D01*
X516723Y204412D01*
X515787Y203872D01*
X514817Y203394D01*
X513819Y202980D01*
X512795Y202632D01*
X511751Y202353D01*
X510691Y202142D01*
X509619Y202001D01*
X508540Y201930D01*
X507460Y201930D01*
X506381Y202001D01*
X505309Y202142D01*
X504249Y202353D01*
X503205Y202632D01*
X502181Y202980D01*
X501183Y203394D01*
X500213Y203872D01*
X499277Y204412D01*
X498378Y205013D01*
X497521Y205671D01*
X496708Y206384D01*
X495944Y207148D01*
X495231Y207961D01*
X494573Y208818D01*
X493972Y209717D01*
X493432Y210653D01*
X492954Y211623D01*
X492540Y212621D01*
X492192Y213645D01*
X491913Y214689D01*
X491702Y215749D01*
X491561Y216821D01*
X491490Y217900D01*
X491490Y218980D01*
M02*
