G04 EAGLE Gerber RS-274X export*
G75*
%MOMM*%
%FSLAX34Y34*%
%LPD*%
%IN*%
%IPPOS*%
%AMOC8*
5,1,8,0,0,1.08239X$1,22.5*%
G01*
%ADD10C,0.254000*%


D10*
X-336550Y73000D02*
X578050Y73000D01*
X577650Y815850D01*
X-336550Y815850D01*
X-336550Y73000D01*
X-37750Y693077D02*
X-37750Y694223D01*
X-37825Y695366D01*
X-37975Y696502D01*
X-38198Y697626D01*
X-38495Y698733D01*
X-38863Y699818D01*
X-39301Y700876D01*
X-39808Y701904D01*
X-40381Y702896D01*
X-41018Y703849D01*
X-41715Y704758D01*
X-42471Y705619D01*
X-43281Y706429D01*
X-44142Y707185D01*
X-45051Y707882D01*
X-46004Y708519D01*
X-46996Y709092D01*
X-48024Y709599D01*
X-49082Y710037D01*
X-50167Y710405D01*
X-51274Y710702D01*
X-52398Y710926D01*
X-53534Y711075D01*
X-54677Y711150D01*
X-55823Y711150D01*
X-56966Y711075D01*
X-58102Y710926D01*
X-59226Y710702D01*
X-60333Y710405D01*
X-61418Y710037D01*
X-62476Y709599D01*
X-63504Y709092D01*
X-64496Y708519D01*
X-65449Y707882D01*
X-66358Y707185D01*
X-67219Y706429D01*
X-68029Y705619D01*
X-68785Y704758D01*
X-69482Y703849D01*
X-70119Y702896D01*
X-70692Y701904D01*
X-71199Y700876D01*
X-71637Y699818D01*
X-72005Y698733D01*
X-72302Y697626D01*
X-72526Y696502D01*
X-72675Y695366D01*
X-72750Y694223D01*
X-72750Y693077D01*
X-72675Y691934D01*
X-72526Y690798D01*
X-72302Y689674D01*
X-72005Y688567D01*
X-71637Y687482D01*
X-71199Y686424D01*
X-70692Y685396D01*
X-70119Y684404D01*
X-69482Y683451D01*
X-68785Y682542D01*
X-68029Y681681D01*
X-67219Y680871D01*
X-66358Y680115D01*
X-65449Y679418D01*
X-64496Y678781D01*
X-63504Y678208D01*
X-62476Y677701D01*
X-61418Y677263D01*
X-60333Y676895D01*
X-59226Y676598D01*
X-58102Y676375D01*
X-56966Y676225D01*
X-55823Y676150D01*
X-54677Y676150D01*
X-53534Y676225D01*
X-52398Y676375D01*
X-51274Y676598D01*
X-50167Y676895D01*
X-49082Y677263D01*
X-48024Y677701D01*
X-46996Y678208D01*
X-46004Y678781D01*
X-45051Y679418D01*
X-44142Y680115D01*
X-43281Y680871D01*
X-42471Y681681D01*
X-41715Y682542D01*
X-41018Y683451D01*
X-40381Y684404D01*
X-39808Y685396D01*
X-39301Y686424D01*
X-38863Y687482D01*
X-38495Y688567D01*
X-38198Y689674D01*
X-37975Y690798D01*
X-37825Y691934D01*
X-37750Y693077D01*
X442250Y693077D02*
X442250Y694223D01*
X442175Y695366D01*
X442026Y696502D01*
X441802Y697626D01*
X441505Y698733D01*
X441137Y699818D01*
X440699Y700876D01*
X440192Y701904D01*
X439619Y702896D01*
X438982Y703849D01*
X438285Y704758D01*
X437529Y705619D01*
X436719Y706429D01*
X435858Y707185D01*
X434949Y707882D01*
X433996Y708519D01*
X433004Y709092D01*
X431976Y709599D01*
X430918Y710037D01*
X429833Y710405D01*
X428726Y710702D01*
X427602Y710926D01*
X426466Y711075D01*
X425323Y711150D01*
X424177Y711150D01*
X423034Y711075D01*
X421898Y710926D01*
X420774Y710702D01*
X419667Y710405D01*
X418582Y710037D01*
X417524Y709599D01*
X416496Y709092D01*
X415504Y708519D01*
X414551Y707882D01*
X413642Y707185D01*
X412781Y706429D01*
X411971Y705619D01*
X411215Y704758D01*
X410518Y703849D01*
X409881Y702896D01*
X409308Y701904D01*
X408801Y700876D01*
X408363Y699818D01*
X407995Y698733D01*
X407698Y697626D01*
X407475Y696502D01*
X407325Y695366D01*
X407250Y694223D01*
X407250Y693077D01*
X407325Y691934D01*
X407475Y690798D01*
X407698Y689674D01*
X407995Y688567D01*
X408363Y687482D01*
X408801Y686424D01*
X409308Y685396D01*
X409881Y684404D01*
X410518Y683451D01*
X411215Y682542D01*
X411971Y681681D01*
X412781Y680871D01*
X413642Y680115D01*
X414551Y679418D01*
X415504Y678781D01*
X416496Y678208D01*
X417524Y677701D01*
X418582Y677263D01*
X419667Y676895D01*
X420774Y676598D01*
X421898Y676375D01*
X423034Y676225D01*
X424177Y676150D01*
X425323Y676150D01*
X426466Y676225D01*
X427602Y676375D01*
X428726Y676598D01*
X429833Y676895D01*
X430918Y677263D01*
X431976Y677701D01*
X433004Y678208D01*
X433996Y678781D01*
X434949Y679418D01*
X435858Y680115D01*
X436719Y680871D01*
X437529Y681681D01*
X438285Y682542D01*
X438982Y683451D01*
X439619Y684404D01*
X440192Y685396D01*
X440699Y686424D01*
X441137Y687482D01*
X441505Y688567D01*
X441802Y689674D01*
X442026Y690798D01*
X442175Y691934D01*
X442250Y693077D01*
X442250Y213077D02*
X442250Y214223D01*
X442175Y215366D01*
X442026Y216502D01*
X441802Y217626D01*
X441505Y218733D01*
X441137Y219818D01*
X440699Y220876D01*
X440192Y221904D01*
X439619Y222896D01*
X438982Y223849D01*
X438285Y224758D01*
X437529Y225619D01*
X436719Y226429D01*
X435858Y227185D01*
X434949Y227882D01*
X433996Y228519D01*
X433004Y229092D01*
X431976Y229599D01*
X430918Y230037D01*
X429833Y230405D01*
X428726Y230702D01*
X427602Y230926D01*
X426466Y231075D01*
X425323Y231150D01*
X424177Y231150D01*
X423034Y231075D01*
X421898Y230926D01*
X420774Y230702D01*
X419667Y230405D01*
X418582Y230037D01*
X417524Y229599D01*
X416496Y229092D01*
X415504Y228519D01*
X414551Y227882D01*
X413642Y227185D01*
X412781Y226429D01*
X411971Y225619D01*
X411215Y224758D01*
X410518Y223849D01*
X409881Y222896D01*
X409308Y221904D01*
X408801Y220876D01*
X408363Y219818D01*
X407995Y218733D01*
X407698Y217626D01*
X407475Y216502D01*
X407325Y215366D01*
X407250Y214223D01*
X407250Y213077D01*
X407325Y211934D01*
X407475Y210798D01*
X407698Y209674D01*
X407995Y208567D01*
X408363Y207482D01*
X408801Y206424D01*
X409308Y205396D01*
X409881Y204404D01*
X410518Y203451D01*
X411215Y202542D01*
X411971Y201681D01*
X412781Y200871D01*
X413642Y200115D01*
X414551Y199418D01*
X415504Y198781D01*
X416496Y198208D01*
X417524Y197701D01*
X418582Y197263D01*
X419667Y196895D01*
X420774Y196598D01*
X421898Y196375D01*
X423034Y196225D01*
X424177Y196150D01*
X425323Y196150D01*
X426466Y196225D01*
X427602Y196375D01*
X428726Y196598D01*
X429833Y196895D01*
X430918Y197263D01*
X431976Y197701D01*
X433004Y198208D01*
X433996Y198781D01*
X434949Y199418D01*
X435858Y200115D01*
X436719Y200871D01*
X437529Y201681D01*
X438285Y202542D01*
X438982Y203451D01*
X439619Y204404D01*
X440192Y205396D01*
X440699Y206424D01*
X441137Y207482D01*
X441505Y208567D01*
X441802Y209674D01*
X442026Y210798D01*
X442175Y211934D01*
X442250Y213077D01*
X45800Y644806D02*
X45863Y645364D01*
X45988Y645911D01*
X46173Y646441D01*
X46417Y646947D01*
X46716Y647423D01*
X47066Y647862D01*
X47463Y648259D01*
X47902Y648609D01*
X48378Y648908D01*
X48884Y649152D01*
X49414Y649337D01*
X49961Y649462D01*
X50519Y649525D01*
X51081Y649525D01*
X51639Y649462D01*
X52186Y649337D01*
X52716Y649152D01*
X53222Y648908D01*
X53698Y648609D01*
X54137Y648259D01*
X54534Y647862D01*
X54884Y647423D01*
X55183Y646947D01*
X55427Y646441D01*
X55612Y645911D01*
X55737Y645364D01*
X55800Y644806D01*
X55800Y644244D01*
X55737Y643686D01*
X55612Y643139D01*
X55427Y642609D01*
X55183Y642103D01*
X54884Y641627D01*
X54534Y641188D01*
X54137Y640791D01*
X53698Y640441D01*
X53222Y640142D01*
X52716Y639898D01*
X52186Y639713D01*
X51639Y639588D01*
X51081Y639525D01*
X50519Y639525D01*
X49961Y639588D01*
X49414Y639713D01*
X48884Y639898D01*
X48378Y640142D01*
X47902Y640441D01*
X47463Y640791D01*
X47066Y641188D01*
X46716Y641627D01*
X46417Y642103D01*
X46173Y642609D01*
X45988Y643139D01*
X45863Y643686D01*
X45800Y644244D01*
X45800Y644806D01*
X7700Y644806D02*
X7763Y645364D01*
X7888Y645911D01*
X8073Y646441D01*
X8317Y646947D01*
X8616Y647423D01*
X8966Y647862D01*
X9363Y648259D01*
X9802Y648609D01*
X10278Y648908D01*
X10784Y649152D01*
X11314Y649337D01*
X11861Y649462D01*
X12419Y649525D01*
X12981Y649525D01*
X13539Y649462D01*
X14086Y649337D01*
X14616Y649152D01*
X15122Y648908D01*
X15598Y648609D01*
X16037Y648259D01*
X16434Y647862D01*
X16784Y647423D01*
X17083Y646947D01*
X17327Y646441D01*
X17512Y645911D01*
X17637Y645364D01*
X17700Y644806D01*
X17700Y644244D01*
X17637Y643686D01*
X17512Y643139D01*
X17327Y642609D01*
X17083Y642103D01*
X16784Y641627D01*
X16434Y641188D01*
X16037Y640791D01*
X15598Y640441D01*
X15122Y640142D01*
X14616Y639898D01*
X14086Y639713D01*
X13539Y639588D01*
X12981Y639525D01*
X12419Y639525D01*
X11861Y639588D01*
X11314Y639713D01*
X10784Y639898D01*
X10278Y640142D01*
X9802Y640441D01*
X9363Y640791D01*
X8966Y641188D01*
X8616Y641627D01*
X8317Y642103D01*
X8073Y642609D01*
X7888Y643139D01*
X7763Y643686D01*
X7700Y644244D01*
X7700Y644806D01*
M02*
