G04 EAGLE Gerber RS-274X export*
G75*
%MOMM*%
%FSLAX34Y34*%
%LPD*%
%INSoldermask Bottom*%
%IPPOS*%
%AMOC8*
5,1,8,0,0,1.08239X$1,22.5*%
G01*
%ADD10P,1.457113X8X292.500000*%
%ADD11C,2.667000*%
%ADD12P,2.886734X8X292.500000*%
%ADD13P,1.457113X8X22.500000*%
%ADD14P,1.457113X8X202.500000*%
%ADD15P,1.457113X8X112.500000*%
%ADD16C,2.374900*%
%ADD17C,2.006600*%
%ADD18R,0.685800X1.587500*%
%ADD19R,1.792000X1.792000*%
%ADD20C,1.792000*%
%ADD21C,2.602000*%
%ADD22C,1.127000*%
%ADD23P,1.787026X8X202.500000*%
%ADD24C,2.677000*%
%ADD25C,1.627000*%
%ADD26C,1.651000*%
%ADD27R,2.311400X0.685800*%
%ADD28C,0.276259*%
%ADD29C,1.803400*%
%ADD30C,3.429000*%
%ADD31R,1.127000X0.927000*%
%ADD32C,1.327000*%
%ADD33C,0.731000*%


D10*
X149225Y561975D03*
X149225Y511175D03*
D11*
X539750Y473075D03*
D12*
X539750Y422275D03*
D13*
X-130175Y771525D03*
X-79375Y771525D03*
D14*
X-76200Y92075D03*
X-127000Y92075D03*
D15*
X149225Y438150D03*
X149225Y488950D03*
X304800Y352425D03*
X304800Y403225D03*
D10*
X196850Y403225D03*
X196850Y352425D03*
X244475Y593725D03*
X244475Y542925D03*
D16*
X288925Y455740D02*
X288925Y433261D01*
X288925Y585661D02*
X288925Y608140D01*
D17*
X-307975Y107950D03*
X-307975Y133350D03*
D18*
X200025Y436309D03*
X187325Y436309D03*
X174625Y436309D03*
X161925Y436309D03*
X161925Y490792D03*
X174625Y490792D03*
X187325Y490792D03*
X200025Y490792D03*
D10*
X244475Y523875D03*
X244475Y422275D03*
D15*
X219075Y492125D03*
X219075Y593725D03*
D13*
X-177800Y117475D03*
X-76200Y117475D03*
X-180975Y800100D03*
X-79375Y800100D03*
D19*
X107950Y209550D03*
D20*
X107950Y234950D03*
X107950Y260350D03*
X107950Y285750D03*
X107950Y311150D03*
X107950Y336550D03*
X107950Y361950D03*
X107950Y387350D03*
X107950Y412750D03*
X107950Y438150D03*
X107950Y463550D03*
X107950Y488950D03*
X107950Y514350D03*
X107950Y539750D03*
X107950Y565150D03*
D19*
X-44450Y565150D03*
D20*
X-44450Y539750D03*
X-44450Y514350D03*
X-44450Y488950D03*
X-44450Y463550D03*
X-44450Y438150D03*
X-44450Y412750D03*
X-44450Y387350D03*
X-44450Y361950D03*
X-44450Y336550D03*
X-44450Y311150D03*
X-44450Y285750D03*
X-44450Y260350D03*
X-44450Y234950D03*
X-44450Y209550D03*
D21*
X107950Y184150D03*
X-44450Y184150D03*
X-44450Y590550D03*
X107950Y590550D03*
D22*
X50800Y644525D03*
X12700Y644525D03*
D23*
X57150Y590550D03*
X57150Y565150D03*
X31750Y590550D03*
X31750Y565150D03*
X6350Y590550D03*
X6350Y565150D03*
D24*
X600075Y419500D03*
X600075Y469500D03*
D25*
X700075Y389500D03*
X700075Y499500D03*
D10*
X-301625Y587375D03*
X-301625Y485775D03*
D17*
X-301625Y657225D03*
X-302157Y631831D03*
D15*
X-140335Y485775D03*
X-140335Y587375D03*
X-177165Y484505D03*
X-177165Y586105D03*
X-215900Y483235D03*
X-215900Y584835D03*
D26*
X-294005Y781050D02*
X-309245Y781050D01*
X-309245Y755650D02*
X-294005Y755650D01*
X-294005Y730250D02*
X-309245Y730250D01*
X-309245Y704850D02*
X-294005Y704850D01*
D14*
X-146050Y92075D03*
X-247650Y92075D03*
X-149225Y771525D03*
X-250825Y771525D03*
X-200025Y800100D03*
X-250825Y800100D03*
D13*
X-247650Y117475D03*
X-196850Y117475D03*
D17*
X-307975Y358775D03*
X-307975Y384175D03*
X-288925Y314325D03*
X-314325Y314325D03*
D24*
X635400Y728280D03*
X685400Y728280D03*
D25*
X715400Y780280D03*
X605400Y780280D03*
D24*
X685400Y160085D03*
X635400Y160085D03*
D25*
X605400Y108085D03*
X715400Y108085D03*
D10*
X304800Y231775D03*
X304800Y130175D03*
D15*
X279400Y168275D03*
X279400Y219075D03*
D14*
X187325Y180975D03*
X136525Y180975D03*
X187325Y155575D03*
X136525Y155575D03*
X267970Y655955D03*
X166370Y655955D03*
D13*
X187325Y685800D03*
X238125Y685800D03*
X257175Y704850D03*
X307975Y704850D03*
X257175Y730250D03*
X307975Y730250D03*
D27*
X229997Y806450D03*
X229997Y793750D03*
X229997Y781050D03*
X229997Y768350D03*
X229997Y755650D03*
X229997Y742950D03*
X229997Y730250D03*
X229997Y717550D03*
X182753Y717550D03*
X182753Y730250D03*
X182753Y742950D03*
X182753Y755650D03*
X182753Y768350D03*
X182753Y781050D03*
X182753Y793750D03*
X182753Y806450D03*
X208153Y85725D03*
X208153Y98425D03*
X208153Y111125D03*
X208153Y123825D03*
X208153Y136525D03*
X208153Y149225D03*
X208153Y161925D03*
X208153Y174625D03*
X255397Y174625D03*
X255397Y161925D03*
X255397Y149225D03*
X255397Y136525D03*
X255397Y123825D03*
X255397Y111125D03*
X255397Y98425D03*
X255397Y85725D03*
D15*
X28575Y190500D03*
X28575Y292100D03*
X76200Y149225D03*
X76200Y200025D03*
X-15875Y174625D03*
X-15875Y225425D03*
D14*
X-15875Y158115D03*
X-66675Y158115D03*
X85725Y698500D03*
X-15875Y698500D03*
X15875Y730250D03*
X-34925Y730250D03*
D13*
X104775Y708025D03*
X155575Y708025D03*
X104775Y733425D03*
X155575Y733425D03*
D27*
X83947Y806450D03*
X83947Y793750D03*
X83947Y781050D03*
X83947Y768350D03*
X83947Y755650D03*
X83947Y742950D03*
X83947Y730250D03*
X83947Y717550D03*
X36703Y717550D03*
X36703Y730250D03*
X36703Y742950D03*
X36703Y755650D03*
X36703Y768350D03*
X36703Y781050D03*
X36703Y793750D03*
X36703Y806450D03*
X4953Y85725D03*
X4953Y98425D03*
X4953Y111125D03*
X4953Y123825D03*
X4953Y136525D03*
X4953Y149225D03*
X4953Y161925D03*
X4953Y174625D03*
X52197Y174625D03*
X52197Y161925D03*
X52197Y149225D03*
X52197Y136525D03*
X52197Y123825D03*
X52197Y111125D03*
X52197Y98425D03*
X52197Y85725D03*
D28*
X32029Y426371D02*
X13821Y426371D01*
X13821Y430879D01*
X32029Y430879D01*
X32029Y426371D01*
X32029Y428996D02*
X13821Y428996D01*
X13821Y439071D02*
X32029Y439071D01*
X13821Y439071D02*
X13821Y443579D01*
X32029Y443579D01*
X32029Y439071D01*
X32029Y441696D02*
X13821Y441696D01*
X13821Y451771D02*
X32029Y451771D01*
X13821Y451771D02*
X13821Y456279D01*
X32029Y456279D01*
X32029Y451771D01*
X32029Y454396D02*
X13821Y454396D01*
X13821Y464471D02*
X32029Y464471D01*
X13821Y464471D02*
X13821Y468979D01*
X32029Y468979D01*
X32029Y464471D01*
X32029Y467096D02*
X13821Y467096D01*
X63221Y464471D02*
X81429Y464471D01*
X63221Y464471D02*
X63221Y468979D01*
X81429Y468979D01*
X81429Y464471D01*
X81429Y467096D02*
X63221Y467096D01*
X63221Y451771D02*
X81429Y451771D01*
X63221Y451771D02*
X63221Y456279D01*
X81429Y456279D01*
X81429Y451771D01*
X81429Y454396D02*
X63221Y454396D01*
X63221Y439071D02*
X81429Y439071D01*
X63221Y439071D02*
X63221Y443579D01*
X81429Y443579D01*
X81429Y439071D01*
X81429Y441696D02*
X63221Y441696D01*
X63221Y426371D02*
X81429Y426371D01*
X63221Y426371D02*
X63221Y430879D01*
X81429Y430879D01*
X81429Y426371D01*
X81429Y428996D02*
X63221Y428996D01*
D24*
X526650Y160085D03*
X476650Y160085D03*
D25*
X446650Y108085D03*
X556650Y108085D03*
D24*
X473475Y728280D03*
X523475Y728280D03*
D25*
X553475Y780280D03*
X443475Y780280D03*
D17*
X-307975Y238125D03*
X-307975Y263525D03*
D10*
X25400Y495300D03*
X25400Y393700D03*
D14*
X241300Y228600D03*
X139700Y228600D03*
D10*
X-293370Y209550D03*
X-293370Y158750D03*
D29*
X622300Y512318D02*
X622300Y529082D01*
X647700Y529082D02*
X647700Y512318D01*
X673100Y512318D02*
X673100Y529082D01*
D30*
X647700Y670560D03*
D29*
X482600Y529082D02*
X482600Y512318D01*
X508000Y512318D02*
X508000Y529082D01*
X533400Y529082D02*
X533400Y512318D01*
D30*
X508000Y670560D03*
D29*
X673100Y376682D02*
X673100Y359918D01*
X647700Y359918D02*
X647700Y376682D01*
X622300Y376682D02*
X622300Y359918D01*
D30*
X647700Y218440D03*
D29*
X533400Y359918D02*
X533400Y376682D01*
X508000Y376682D02*
X508000Y359918D01*
X482600Y359918D02*
X482600Y376682D01*
D30*
X508000Y218440D03*
D31*
X-189800Y663600D03*
X-189800Y682600D03*
X-165800Y673100D03*
X-189800Y701700D03*
X-189800Y720700D03*
X-165800Y711200D03*
X-189800Y282600D03*
X-189800Y301600D03*
X-165800Y292100D03*
X-189800Y244500D03*
X-189800Y263500D03*
X-165800Y254000D03*
D13*
X-228600Y673100D03*
X-127000Y673100D03*
X-228600Y711200D03*
X-127000Y711200D03*
X-228600Y292100D03*
X-127000Y292100D03*
X-228600Y254000D03*
X-127000Y254000D03*
D32*
X-99060Y158750D03*
X-99060Y184150D03*
X-226060Y615950D03*
X-200660Y615950D03*
X-251460Y514350D03*
X-99060Y209550D03*
X-99060Y234950D03*
X-99060Y260350D03*
X-99060Y285750D03*
X-99060Y311150D03*
X-99060Y336550D03*
X-99060Y361950D03*
X-99060Y387350D03*
X-99060Y412750D03*
X-99060Y438150D03*
X-99060Y463550D03*
X-99060Y488950D03*
X-99060Y514350D03*
X-251460Y488950D03*
X-251460Y463550D03*
X-251460Y438150D03*
X-251460Y412750D03*
X-251460Y387350D03*
X-251460Y361950D03*
X-251460Y336550D03*
X-251460Y311150D03*
X-251460Y285750D03*
X-251460Y260350D03*
X-251460Y234950D03*
X-251460Y209550D03*
X-251460Y184150D03*
X-251460Y158750D03*
X-99060Y539750D03*
X-99060Y565150D03*
X-99060Y590550D03*
X-99060Y615950D03*
X-99060Y641350D03*
X-99060Y666750D03*
X-99060Y692150D03*
X-99060Y717550D03*
X-99060Y742950D03*
X-251460Y742950D03*
X-251460Y717550D03*
X-251460Y692150D03*
X-251460Y666750D03*
X-251460Y641350D03*
X-251460Y615950D03*
X-251460Y590550D03*
X-251460Y565150D03*
X-251460Y539750D03*
D33*
X203200Y774926D03*
X69850Y774700D03*
X25400Y114300D03*
X184920Y110130D03*
X15240Y762000D03*
X50800Y441325D03*
X291747Y724028D03*
X176431Y509496D03*
X160020Y755650D03*
X223619Y144857D03*
X398780Y500380D03*
X-12700Y495300D03*
X231638Y155438D03*
X212725Y784225D03*
X111125Y774700D03*
X178252Y139700D03*
X-62606Y118486D03*
X0Y736600D03*
X36731Y139700D03*
X-64770Y438150D03*
X-64770Y386080D03*
X101600Y685800D03*
X-73660Y361950D03*
X-74930Y463550D03*
X356870Y500380D03*
X342900Y165100D03*
X316401Y191599D03*
X355600Y177800D03*
X317500Y203200D03*
X-187960Y449989D03*
X-149860Y449989D03*
X-228600Y317500D03*
X-63500Y139700D03*
X142875Y736600D03*
X214133Y744215D03*
X127000Y190500D03*
X133350Y736600D03*
X254000Y752475D03*
X345030Y675230D03*
X240561Y129131D03*
X292100Y139700D03*
X165100Y152400D03*
X-156210Y264160D03*
X-177800Y234950D03*
X92710Y298450D03*
X-81280Y219710D03*
X120650Y646430D03*
X139700Y660400D03*
X-81280Y232410D03*
M02*
