G04 EAGLE Gerber RS-274X export*
G75*
%MOMM*%
%FSLAX34Y34*%
%LPD*%
%INSolderpaste Bottom*%
%IPPOS*%
%AMOC8*
5,1,8,0,0,1.08239X$1,22.5*%
G01*
%ADD10R,0.558800X1.460500*%
%ADD11R,2.184400X0.558800*%
%ADD12C,0.150000*%


D10*
X200025Y436309D03*
X187325Y436309D03*
X174625Y436309D03*
X161925Y436309D03*
X161925Y490792D03*
X174625Y490792D03*
X187325Y490792D03*
X200025Y490792D03*
D11*
X229997Y806450D03*
X229997Y793750D03*
X229997Y781050D03*
X229997Y768350D03*
X229997Y755650D03*
X229997Y742950D03*
X229997Y730250D03*
X229997Y717550D03*
X182753Y717550D03*
X182753Y730250D03*
X182753Y742950D03*
X182753Y755650D03*
X182753Y768350D03*
X182753Y781050D03*
X182753Y793750D03*
X182753Y806450D03*
X208153Y85725D03*
X208153Y98425D03*
X208153Y111125D03*
X208153Y123825D03*
X208153Y136525D03*
X208153Y149225D03*
X208153Y161925D03*
X208153Y174625D03*
X255397Y174625D03*
X255397Y161925D03*
X255397Y149225D03*
X255397Y136525D03*
X255397Y123825D03*
X255397Y111125D03*
X255397Y98425D03*
X255397Y85725D03*
X83947Y806450D03*
X83947Y793750D03*
X83947Y781050D03*
X83947Y768350D03*
X83947Y755650D03*
X83947Y742950D03*
X83947Y730250D03*
X83947Y717550D03*
X36703Y717550D03*
X36703Y730250D03*
X36703Y742950D03*
X36703Y755650D03*
X36703Y768350D03*
X36703Y781050D03*
X36703Y793750D03*
X36703Y806450D03*
X4953Y85725D03*
X4953Y98425D03*
X4953Y111125D03*
X4953Y123825D03*
X4953Y136525D03*
X4953Y149225D03*
X4953Y161925D03*
X4953Y174625D03*
X52197Y174625D03*
X52197Y161925D03*
X52197Y149225D03*
X52197Y136525D03*
X52197Y123825D03*
X52197Y111125D03*
X52197Y98425D03*
X52197Y85725D03*
D12*
X32025Y426375D02*
X13825Y426375D01*
X13825Y430875D01*
X32025Y430875D01*
X32025Y426375D01*
X32025Y427800D02*
X13825Y427800D01*
X13825Y429225D02*
X32025Y429225D01*
X32025Y430650D02*
X13825Y430650D01*
X13825Y439075D02*
X32025Y439075D01*
X13825Y439075D02*
X13825Y443575D01*
X32025Y443575D01*
X32025Y439075D01*
X32025Y440500D02*
X13825Y440500D01*
X13825Y441925D02*
X32025Y441925D01*
X32025Y443350D02*
X13825Y443350D01*
X13825Y451775D02*
X32025Y451775D01*
X13825Y451775D02*
X13825Y456275D01*
X32025Y456275D01*
X32025Y451775D01*
X32025Y453200D02*
X13825Y453200D01*
X13825Y454625D02*
X32025Y454625D01*
X32025Y456050D02*
X13825Y456050D01*
X13825Y464475D02*
X32025Y464475D01*
X13825Y464475D02*
X13825Y468975D01*
X32025Y468975D01*
X32025Y464475D01*
X32025Y465900D02*
X13825Y465900D01*
X13825Y467325D02*
X32025Y467325D01*
X32025Y468750D02*
X13825Y468750D01*
X63225Y464475D02*
X81425Y464475D01*
X63225Y464475D02*
X63225Y468975D01*
X81425Y468975D01*
X81425Y464475D01*
X81425Y465900D02*
X63225Y465900D01*
X63225Y467325D02*
X81425Y467325D01*
X81425Y468750D02*
X63225Y468750D01*
X63225Y451775D02*
X81425Y451775D01*
X63225Y451775D02*
X63225Y456275D01*
X81425Y456275D01*
X81425Y451775D01*
X81425Y453200D02*
X63225Y453200D01*
X63225Y454625D02*
X81425Y454625D01*
X81425Y456050D02*
X63225Y456050D01*
X63225Y439075D02*
X81425Y439075D01*
X63225Y439075D02*
X63225Y443575D01*
X81425Y443575D01*
X81425Y439075D01*
X81425Y440500D02*
X63225Y440500D01*
X63225Y441925D02*
X81425Y441925D01*
X81425Y443350D02*
X63225Y443350D01*
X63225Y426375D02*
X81425Y426375D01*
X63225Y426375D02*
X63225Y430875D01*
X81425Y430875D01*
X81425Y426375D01*
X81425Y427800D02*
X63225Y427800D01*
X63225Y429225D02*
X81425Y429225D01*
X81425Y430650D02*
X63225Y430650D01*
M02*
