G04 EAGLE Gerber RS-274X export*
G75*
%MOMM*%
%FSLAX34Y34*%
%LPD*%
%INSoldermask Top*%
%IPPOS*%
%AMOC8*
5,1,8,0,0,1.08239X$1,22.5*%
G01*
%ADD10P,1.457113X8X292.500000*%
%ADD11C,2.667000*%
%ADD12P,2.886734X8X292.500000*%
%ADD13P,1.457113X8X22.500000*%
%ADD14P,1.457113X8X202.500000*%
%ADD15P,1.457113X8X112.500000*%
%ADD16C,2.374900*%
%ADD17C,2.006600*%
%ADD18R,1.066800X1.828800*%
%ADD19R,6.781800X7.848600*%
%ADD20R,3.556000X2.006600*%
%ADD21R,1.792000X1.792000*%
%ADD22C,1.792000*%
%ADD23C,2.602000*%
%ADD24R,0.887000X2.727000*%
%ADD25C,1.127000*%
%ADD26P,1.787026X8X202.500000*%
%ADD27C,2.677000*%
%ADD28C,1.627000*%
%ADD29C,1.651000*%
%ADD30R,0.927000X1.127000*%
%ADD31R,0.752400X1.652400*%
%ADD32R,1.352400X1.952400*%
%ADD33R,0.727000X1.627000*%
%ADD34R,1.327000X1.927000*%
%ADD35R,3.357000X2.287000*%
%ADD36R,3.276600X2.082800*%
%ADD37C,1.803400*%
%ADD38C,3.429000*%
%ADD39C,1.327000*%
%ADD40C,0.731000*%


D10*
X149225Y561975D03*
X149225Y511175D03*
D11*
X539750Y473075D03*
D12*
X539750Y422275D03*
D13*
X-130175Y771525D03*
X-79375Y771525D03*
D14*
X-76200Y92075D03*
X-127000Y92075D03*
D15*
X149225Y438150D03*
X149225Y488950D03*
X304800Y352425D03*
X304800Y403225D03*
D10*
X196850Y403225D03*
X196850Y352425D03*
X244475Y593725D03*
X244475Y542925D03*
D16*
X288925Y455740D02*
X288925Y433261D01*
X288925Y585661D02*
X288925Y608140D01*
D17*
X-307975Y107950D03*
X-307975Y133350D03*
D18*
X279675Y403987D03*
X234675Y403987D03*
D19*
X257175Y342900D03*
D10*
X244475Y523875D03*
X244475Y422275D03*
D15*
X219075Y492125D03*
X219075Y593725D03*
D13*
X-177800Y117475D03*
X-76200Y117475D03*
X-180975Y800100D03*
X-79375Y800100D03*
D20*
X187325Y444246D03*
X187325Y495554D03*
D21*
X107950Y209550D03*
D22*
X107950Y234950D03*
X107950Y260350D03*
X107950Y285750D03*
X107950Y311150D03*
X107950Y336550D03*
X107950Y361950D03*
X107950Y387350D03*
X107950Y412750D03*
X107950Y438150D03*
X107950Y463550D03*
X107950Y488950D03*
X107950Y514350D03*
X107950Y539750D03*
X107950Y565150D03*
D21*
X-44450Y565150D03*
D22*
X-44450Y539750D03*
X-44450Y514350D03*
X-44450Y488950D03*
X-44450Y463550D03*
X-44450Y438150D03*
X-44450Y412750D03*
X-44450Y387350D03*
X-44450Y361950D03*
X-44450Y336550D03*
X-44450Y311150D03*
X-44450Y285750D03*
X-44450Y260350D03*
X-44450Y234950D03*
X-44450Y209550D03*
D23*
X107950Y184150D03*
X-44450Y184150D03*
X-44450Y590550D03*
X107950Y590550D03*
D24*
X57150Y623025D03*
X44450Y623025D03*
X31750Y623025D03*
X19050Y623025D03*
X6350Y623025D03*
X57150Y666025D03*
X44450Y666025D03*
X31750Y666025D03*
X19050Y666025D03*
X6350Y666025D03*
D25*
X50800Y644525D03*
X12700Y644525D03*
D26*
X57150Y590550D03*
X57150Y565150D03*
X31750Y590550D03*
X31750Y565150D03*
X6350Y590550D03*
X6350Y565150D03*
D27*
X600075Y419500D03*
X600075Y469500D03*
D28*
X700075Y389500D03*
X700075Y499500D03*
D10*
X-301625Y587375D03*
X-301625Y485775D03*
D17*
X-301625Y657225D03*
X-302157Y631831D03*
D15*
X-140335Y485775D03*
X-140335Y587375D03*
X-177165Y484505D03*
X-177165Y586105D03*
X-215900Y483235D03*
X-215900Y584835D03*
D29*
X-294005Y781050D02*
X-309245Y781050D01*
X-309245Y755650D02*
X-294005Y755650D01*
X-294005Y730250D02*
X-309245Y730250D01*
X-309245Y704850D02*
X-294005Y704850D01*
D30*
X-311125Y438850D03*
X-292125Y438850D03*
X-301625Y462850D03*
X-149200Y438850D03*
X-130200Y438850D03*
X-139700Y462850D03*
X-187300Y438850D03*
X-168300Y438850D03*
X-177800Y462850D03*
X-225400Y438850D03*
X-206400Y438850D03*
X-215900Y462850D03*
D14*
X-146050Y92075D03*
X-247650Y92075D03*
X-149225Y771525D03*
X-250825Y771525D03*
X-200025Y800100D03*
X-250825Y800100D03*
D13*
X-247650Y117475D03*
X-196850Y117475D03*
D17*
X-307975Y358775D03*
X-307975Y384175D03*
X-288925Y314325D03*
X-314325Y314325D03*
D27*
X635400Y728280D03*
X685400Y728280D03*
D28*
X715400Y780280D03*
X605400Y780280D03*
D27*
X685400Y160085D03*
X635400Y160085D03*
D28*
X605400Y108085D03*
X715400Y108085D03*
D10*
X304800Y231775D03*
X304800Y130175D03*
D15*
X279400Y168275D03*
X279400Y219075D03*
D14*
X187325Y180975D03*
X136525Y180975D03*
X187325Y155575D03*
X136525Y155575D03*
X267970Y655955D03*
X166370Y655955D03*
D13*
X187325Y685800D03*
X238125Y685800D03*
X257175Y704850D03*
X307975Y704850D03*
X257175Y730250D03*
X307975Y730250D03*
D15*
X28575Y190500D03*
X28575Y292100D03*
X76200Y149225D03*
X76200Y200025D03*
X-15875Y174625D03*
X-15875Y225425D03*
D14*
X-15875Y158115D03*
X-66675Y158115D03*
X85725Y698500D03*
X-15875Y698500D03*
X15875Y730250D03*
X-34925Y730250D03*
D13*
X104775Y708025D03*
X155575Y708025D03*
X104775Y733425D03*
X155575Y733425D03*
D31*
X-32860Y127150D03*
X-42860Y127150D03*
D32*
X-55860Y88150D03*
X10140Y88150D03*
D31*
X-22860Y127150D03*
X-12860Y127150D03*
X-2860Y127150D03*
X-9685Y759995D03*
X315Y759995D03*
D32*
X13315Y798995D03*
X-52685Y798995D03*
D31*
X-19685Y759995D03*
X-29685Y759995D03*
X-39685Y759995D03*
D33*
X70405Y760095D03*
X60405Y760095D03*
X80405Y760095D03*
X50405Y760095D03*
D34*
X93405Y799095D03*
X37405Y799095D03*
D33*
X211375Y760095D03*
X201375Y760095D03*
X221375Y760095D03*
X191375Y760095D03*
D34*
X234375Y799095D03*
X178375Y799095D03*
D33*
X198200Y128270D03*
X208200Y128270D03*
X188200Y128270D03*
X218200Y128270D03*
D34*
X175200Y89270D03*
X231200Y89270D03*
D33*
X57865Y128270D03*
X67865Y128270D03*
X47865Y128270D03*
X77865Y128270D03*
D34*
X34865Y89270D03*
X90865Y89270D03*
D31*
X271225Y759995D03*
X281225Y759995D03*
D32*
X294225Y798995D03*
X258225Y798995D03*
D31*
X130890Y759995D03*
X140890Y759995D03*
D32*
X153890Y798995D03*
X117890Y798995D03*
D31*
X278050Y128420D03*
X268050Y128420D03*
D32*
X255050Y89420D03*
X291050Y89420D03*
D31*
X138350Y128420D03*
X128350Y128420D03*
D32*
X115350Y89420D03*
X151350Y89420D03*
D27*
X526650Y160085D03*
X476650Y160085D03*
D28*
X446650Y108085D03*
X556650Y108085D03*
D27*
X473475Y728280D03*
X523475Y728280D03*
D28*
X553475Y780280D03*
X443475Y780280D03*
D17*
X-307975Y238125D03*
X-307975Y263525D03*
D10*
X25400Y495300D03*
X25400Y393700D03*
D14*
X241300Y228600D03*
X139700Y228600D03*
D10*
X-293370Y209550D03*
X-293370Y158750D03*
D35*
X421640Y531560D03*
X421640Y619060D03*
X419100Y361250D03*
X419100Y273750D03*
X368300Y361250D03*
X368300Y273750D03*
X367030Y531560D03*
X367030Y619060D03*
D36*
X165100Y329311D03*
X165100Y280289D03*
D37*
X622300Y512318D02*
X622300Y529082D01*
X647700Y529082D02*
X647700Y512318D01*
X673100Y512318D02*
X673100Y529082D01*
D38*
X647700Y670560D03*
D37*
X482600Y529082D02*
X482600Y512318D01*
X508000Y512318D02*
X508000Y529082D01*
X533400Y529082D02*
X533400Y512318D01*
D38*
X508000Y670560D03*
D37*
X673100Y376682D02*
X673100Y359918D01*
X647700Y359918D02*
X647700Y376682D01*
X622300Y376682D02*
X622300Y359918D01*
D38*
X647700Y218440D03*
D37*
X533400Y359918D02*
X533400Y376682D01*
X508000Y376682D02*
X508000Y359918D01*
X482600Y359918D02*
X482600Y376682D01*
D38*
X508000Y218440D03*
D13*
X-228600Y673100D03*
X-127000Y673100D03*
X-228600Y711200D03*
X-127000Y711200D03*
X-228600Y292100D03*
X-127000Y292100D03*
X-228600Y254000D03*
X-127000Y254000D03*
D31*
X368300Y127100D03*
X358300Y127100D03*
D32*
X345300Y88100D03*
X391300Y88100D03*
D31*
X378300Y127100D03*
D39*
X-99060Y158750D03*
X-99060Y184150D03*
X-226060Y615950D03*
X-200660Y615950D03*
X-251460Y514350D03*
X-99060Y209550D03*
X-99060Y234950D03*
X-99060Y260350D03*
X-99060Y285750D03*
X-99060Y311150D03*
X-99060Y336550D03*
X-99060Y361950D03*
X-99060Y387350D03*
X-99060Y412750D03*
X-99060Y438150D03*
X-99060Y463550D03*
X-99060Y488950D03*
X-99060Y514350D03*
X-251460Y488950D03*
X-251460Y463550D03*
X-251460Y438150D03*
X-251460Y412750D03*
X-251460Y387350D03*
X-251460Y361950D03*
X-251460Y336550D03*
X-251460Y311150D03*
X-251460Y285750D03*
X-251460Y260350D03*
X-251460Y234950D03*
X-251460Y209550D03*
X-251460Y184150D03*
X-251460Y158750D03*
X-99060Y539750D03*
X-99060Y565150D03*
X-99060Y590550D03*
X-99060Y615950D03*
X-99060Y641350D03*
X-99060Y666750D03*
X-99060Y692150D03*
X-99060Y717550D03*
X-99060Y742950D03*
X-251460Y742950D03*
X-251460Y717550D03*
X-251460Y692150D03*
X-251460Y666750D03*
X-251460Y641350D03*
X-251460Y615950D03*
X-251460Y590550D03*
X-251460Y565150D03*
X-251460Y539750D03*
D40*
X203200Y774926D03*
X69850Y774700D03*
X25400Y114300D03*
X184920Y110130D03*
X15240Y762000D03*
X50800Y441325D03*
X291747Y724028D03*
X176431Y509496D03*
X160020Y755650D03*
X223619Y144857D03*
X398780Y500380D03*
X-12700Y495300D03*
X231638Y155438D03*
X212725Y784225D03*
X111125Y774700D03*
X178252Y139700D03*
X-62606Y118486D03*
X0Y736600D03*
X36731Y139700D03*
X-64770Y438150D03*
X-64770Y386080D03*
X101600Y685800D03*
X-73660Y361950D03*
X-74930Y463550D03*
X356870Y500380D03*
X342900Y165100D03*
X316401Y191599D03*
X355600Y177800D03*
X317500Y203200D03*
X-187960Y449989D03*
X-149860Y449989D03*
X-228600Y317500D03*
X-63500Y139700D03*
X142875Y736600D03*
X214133Y744215D03*
X127000Y190500D03*
X133350Y736600D03*
X254000Y752475D03*
X345030Y675230D03*
X240561Y129131D03*
X292100Y139700D03*
X165100Y152400D03*
X-156210Y264160D03*
X-177800Y234950D03*
X92710Y298450D03*
X-81280Y219710D03*
X120650Y646430D03*
X139700Y660400D03*
X-81280Y232410D03*
M02*
