M48
;GenerationSoftware,Autodesk,EAGLE,9.6.2*%
;CreationDate,2022-04-05T16:47:51Z*%
FMAT,2
ICI,OFF
METRIC,TZ,000.000
T11C0.350
T10C0.800
T9C0.813
T8C1.000
T7C1.016
T6C1.110
T5C1.118
T4C1.499
T3C1.650
T2C1.700
T1C3.302
%
G90
M71
T1
X64770Y21844
X50800Y21844
X64770Y67056
X50800Y67056
T2
X68540Y72828
X63540Y72828
X63540Y16008
X68540Y16008
X60007Y41950
X60007Y46950
X52665Y16008
X47665Y16008
X47347Y72828
X52347Y72828
T3
X10795Y18415
X-4445Y18415
X-4445Y59055
X10795Y59055
T4
X28892Y44450
X28892Y59690
T5
X48260Y52070
X48260Y36830
X62230Y52070
X64770Y52070
X67310Y52070
X50800Y52070
X53340Y52070
X67310Y36830
X64770Y36830
X62230Y36830
X53340Y36830
X50800Y36830
T6
X-4445Y33655
X-4445Y36195
X10795Y41275
X10795Y43815
X10795Y46355
X10795Y48895
X10795Y51435
X10795Y53975
X10795Y26035
X10795Y56515
X-4445Y56515
X-4445Y53975
X-4445Y51435
X-4445Y46355
X10795Y36195
X10795Y20955
X10795Y23495
X-4445Y38735
X10795Y28575
X10795Y38735
X-4445Y23495
X-4445Y26035
X-4445Y43815
X10795Y31115
X-4445Y20955
X10795Y33655
X-4445Y41275
X-4445Y28575
X-4445Y31115
X-4445Y48895
T7
X-30162Y65723
X53975Y47307
X-30162Y78105
X-30162Y75565
X53975Y42228
X-30162Y73025
X-30162Y70485
X-31432Y31432
X-30797Y23812
X-30216Y63183
X-28892Y31432
X-30797Y38418
X-30797Y35878
X5715Y59055
X5715Y56515
X3175Y59055
X3175Y56515
X635Y59055
X635Y56515
X-30797Y10795
X-30797Y13335
X-30797Y26352
T8
X71540Y10809
X1270Y64452
X5080Y64452
X71540Y78028
X44665Y10809
X55665Y10809
X70008Y38950
X70008Y49950
X55347Y78028
X44347Y78028
X60540Y78028
X60540Y10809
T9
X-1587Y15811
X-1587Y22542
X-1587Y17463
X7620Y20003
X7620Y14922
X2857Y29210
X2857Y19050
X30797Y73025
X25717Y73025
X30797Y70485
X25717Y70485
X23812Y68580
X18733Y68580
X16637Y65596
X26797Y65596
X13652Y15557
X18733Y15557
X18733Y18098
X27940Y21907
X27940Y16828
X30480Y13017
X30480Y23177
X-19685Y11747
X-24765Y11747
X-25082Y80010
X-20003Y80010
X-25082Y77153
X-14922Y77153
X-24765Y9208
X-14605Y9208
X14922Y56197
X-30162Y58737
X-30162Y48577
X14922Y51117
X-13017Y77153
X-14033Y48577
X-14033Y58737
X-17717Y48450
X-17717Y58610
X-21590Y48323
X-21590Y58483
X-7937Y77153
X-7620Y9208
X-3492Y73025
X10478Y70803
X15557Y70803
X10478Y73343
X15557Y73343
X-12700Y9208
X14922Y43815
X14922Y48895
X30480Y35243
X30480Y40323
X19685Y40323
X24447Y59372
X24447Y54292
X24447Y52387
X24447Y42228
X2540Y49530
X2540Y39370
X24130Y22860
X13970Y22860
X-29337Y20955
X-29337Y15875
X21907Y49212
X21907Y59372
X-17780Y11747
X-7620Y11747
X-18098Y80010
X-7937Y80010
X13652Y18098
X19685Y35243
X1587Y73025
X-1587Y69850
X8573Y69850
X-6667Y15811
X-22860Y67310
X-12700Y67310
X-22860Y71120
X-12700Y71120
X-22860Y29210
X-12700Y29210
X-22860Y25400
X-12700Y25400
T10
X-9906Y46355
X-9906Y15875
X-9906Y18415
X-22606Y61595
X-20066Y61595
X-25146Y51435
X-9906Y20955
X-9906Y23495
X-9906Y26035
X-9906Y28575
X-9906Y31115
X-9906Y33655
X-9906Y36195
X-9906Y38735
X-9906Y41275
X-9906Y43815
X-9906Y48895
X-9906Y51435
X-25146Y48895
X-25146Y46355
X-25146Y43815
X-25146Y41275
X-25146Y38735
X-25146Y36195
X-25146Y33655
X-25146Y31115
X-25146Y28575
X-25146Y26035
X-25146Y23495
X-25146Y20955
X-25146Y18415
X-25146Y15875
X-9906Y53975
X-9906Y56515
X-9906Y59055
X-9906Y61595
X-9906Y64135
X-9906Y66675
X-9906Y69215
X-9906Y71755
X-9906Y74295
X-25146Y74295
X-25146Y71755
X-25146Y69215
X-25146Y66675
X-25146Y64135
X-25146Y61595
X-25146Y59055
X-25146Y56515
X-25146Y53975
T11
X29175Y72403
X5080Y44132
X1524Y76200
X18492Y11013
X2540Y11430
X6985Y77470
X21413Y74421
X-8128Y23241
X13970Y66040
X12065Y64643
X-8128Y21971
X9271Y29845
X-17780Y23495
X-15621Y26416
X20320Y77493
X16510Y15240
X29210Y13970
X24056Y12913
X34503Y67523
X25400Y75248
X13335Y73660
X12700Y19050
X14287Y73660
X-6350Y13970
X-22860Y31750
X-14986Y44999
X-18796Y44999
X31750Y20320
X35560Y17780
X31640Y19160
X34290Y16510
X35687Y50038
X-7493Y46355
X-7366Y36195
X10160Y68580
X-6477Y38608
X-6477Y43815
X3673Y13970
X0Y73660
X-6261Y11849
X17825Y13970
X11112Y77470
X21273Y78423
X23164Y15544
X-1270Y49530
X39878Y50038
X22362Y14486
X16002Y75565
X17643Y50950
M30