M48
;GenerationSoftware,Autodesk,EAGLE,9.6.2*%
;CreationDate,2021-12-08T22:40:17Z*%
FMAT,2
ICI,OFF
METRIC,TZ,000.000
T9C0.350
T8C0.813
T7C0.965
T6C1.000
T5C1.016
T4C1.110
T3C1.499
T2C1.650
T1C1.700
%
G90
M71
T1
X34965Y16390
X44767Y39410
X39648Y72828
X34648Y72828
X53300Y72828
X39965Y16390
X48300Y16390
X53300Y16390
X48300Y72828
X44767Y44410
T2
X-4445Y18415
X10795Y18415
X10795Y59055
X-4445Y59055
T3
X28892Y59690
X28892Y44450
T4
X10795Y26035
X-4445Y26035
X-4445Y28575
X-4445Y31115
X-4445Y33655
X-4445Y36195
X-4445Y38735
X10795Y28575
X-4445Y41275
X10795Y53975
X10795Y51435
X10795Y48895
X10795Y46355
X-4445Y53975
X10795Y43815
X10795Y41275
X10795Y38735
X-4445Y23495
X-4445Y20955
X-4445Y51435
X10795Y56515
X-4445Y48895
X-4445Y46355
X-4445Y43815
X-4445Y56515
X10795Y20955
X10795Y31115
X10795Y36195
X10795Y33655
X10795Y23495
T5
X-30797Y37783
X-30797Y23812
X-30162Y70485
X35243Y40005
X40323Y40005
X5715Y59055
X5715Y56515
X3175Y59055
X3175Y56515
X635Y59055
X635Y56515
X-32067Y15875
X-32067Y18415
X-30162Y75565
X-30162Y73025
X-30162Y65723
X-30216Y63183
X-30162Y78105
X-30797Y26352
X-30797Y29527
X-30797Y32067
X-30797Y35243
T6
X31965Y11189
X54767Y47410
X54767Y36410
X1270Y64452
X56300Y78028
X45300Y78028
X45300Y11189
X56300Y11189
X42965Y11189
X42648Y78028
X31647Y78028
X5080Y64452
T7
X-9843Y49212
X-25082Y49212
X-25082Y46672
X-25082Y41593
X-25082Y39053
X-25082Y36513
X-25082Y33973
X-25082Y31432
X-9843Y54292
X-9843Y56832
X-9843Y59372
X-9843Y61912
X-9843Y64452
X-9843Y66993
X-9843Y69533
X-9843Y72073
X-25082Y28892
X-25082Y74613
X-9843Y36513
X-25082Y69533
X-25082Y66993
X-25082Y64452
X-25082Y61912
X-25082Y59372
X-25082Y56832
X-25082Y54292
X-22542Y61912
X-9843Y21273
X-25082Y51752
X-9843Y51752
X-25082Y44132
X-25082Y26352
X-9843Y23812
X-9843Y26352
X-9843Y28892
X-25082Y23812
X-9843Y18733
X-9843Y31432
X-9843Y33973
X-25082Y21273
X-25082Y18733
X-25082Y72073
X-9843Y39053
X-9843Y16192
X-25082Y16192
X-9843Y41593
X-9843Y44132
X-9843Y46672
X-9843Y74613
T8
X14922Y51117
X-13017Y77153
X-7937Y77153
X-7620Y9208
X-12700Y9208
X14922Y43815
X14922Y48895
X30480Y35243
X30480Y40323
X19685Y40323
X19685Y35243
X24447Y59372
X24447Y54292
X24447Y52387
X24447Y42228
X21907Y49212
X21907Y59372
X-17780Y11747
X-18098Y80010
X-7937Y80010
X-30162Y58737
X-30162Y48577
X-14033Y48577
X-14033Y58737
X-17717Y48450
X-17717Y58610
X-21590Y48323
X-21590Y58483
X7620Y14922
X30480Y23177
X30480Y13017
X27940Y16828
X27940Y21907
X18733Y18098
X13652Y18098
X18733Y15557
X13652Y15557
X26797Y65596
X16637Y65596
X18733Y68580
X23812Y68580
X25717Y70485
X30797Y70485
X25717Y73025
X30797Y73025
X2857Y19050
X2857Y29210
X7620Y20003
X-1587Y17463
X-1587Y22542
X-1587Y15811
X-6667Y15811
X8573Y69850
X-1587Y69850
X1587Y73025
X-3492Y73025
X10478Y70803
X15557Y70803
X10478Y73343
X15557Y73343
X-14605Y9208
X-24765Y9208
X-14922Y77153
X-25082Y77153
X-20003Y80010
X-25082Y80010
X-24765Y11747
X-19685Y11747
X-7620Y11747
X14922Y56197
X2540Y49530
X2540Y39370
X24130Y22860
X13970Y22860
X-29337Y20955
X-29337Y15875
T9
X9843Y77470
X20320Y77493
X21273Y78423
X-13970Y33020
X22362Y14486
X16637Y75565
X17643Y50950
X29175Y72403
X5080Y44132
X2032Y74930
X19127Y11013
X2540Y11430
X6985Y77470
X29210Y13970
X16510Y15240
X24056Y12913
X31963Y67523
X25400Y75248
X13335Y73660
X12700Y19050
X21413Y74421
X14287Y73660
X1270Y53340
X-6350Y13970
X34290Y62865
X-7620Y44450
X3673Y13970
X0Y73660
X-5118Y13246
X-6327Y50800
X17825Y13970
M30